<svg width="700" height="550" xmlns="http://www.w3.org/2000/svg">
  <!-- 배경 -->
  <rect width="700" height="550" fill="#f8f9fa" rx="10" ry="10"/>
  
  <!-- 타이틀 -->
  <text x="350" y="40" font-family="Arial" font-size="24" text-anchor="middle" font-weight="bold">로또 6/45 자동 구매 프로세스</text>
  
  <!-- 단계 박스들 -->
  <rect x="150" y="70" width="400" height="60" rx="10" ry="10" fill="#4285f4" stroke="#2a56c6" stroke-width="2"/>
  <text x="350" y="105" font-family="Arial" font-size="16" text-anchor="middle" fill="white">1. buy_lotto645 함수 호출 (cnt, mode 파라미터)</text>
  
  <rect x="150" y="150" width="400" height="60" rx="10" ry="10" fill="#fbbc05" stroke="#e37400" stroke-width="2"/>
  <text x="350" y="185" font-family="Arial" font-size="16" text-anchor="middle">2. 인증 정보로 요청 헤더 생성 (_generate_req_headers)</text>
  
  <rect x="150" y="230" width="400" height="60" rx="10" ry="10" fill="#34a853" stroke="#137333" stroke-width="2"/>
  <text x="350" y="265" font-family="Arial" font-size="16" text-anchor="middle">3. 로또 구매 요구사항 획득 (_getRequirements)</text>
  <text x="350" y="285" font-family="Arial" font-size="14" text-anchor="middle">- direct IP, 추첨일자, 지급기한 정보</text>
  
  <rect x="150" y="310" width="400" height="60" rx="10" ry="10" fill="#ea4335" stroke="#b31412" stroke-width="2"/>
  <text x="350" y="345" font-family="Arial" font-size="16" text-anchor="middle">4. 자동 구매 요청 본문 생성 (_generate_body_for_auto_mode)</text>
  <text x="350" y="365" font-family="Arial" font-size="14" text-anchor="middle">- 회차, 금액, 게임 수, 번호 선택 정보</text>
  
  <rect x="150" y="390" width="400" height="60" rx="10" ry="10" fill="#ab47bc" stroke="#7b1fa2" stroke-width="2"/>
  <text x="350" y="425" font-family="Arial" font-size="16" text-anchor="middle">5. 구매 요청 전송 (_try_buying)</text>
  <text x="350" y="445" font-family="Arial" font-size="14" text-anchor="middle">- execBuy.do 엔드포인트로 POST 요청</text>
  
  <rect x="150" y="470" width="400" height="60" rx="10" ry="10" fill="#26c6da" stroke="#00838f" stroke-width="2"/>
  <text x="350" y="505" font-family="Arial" font-size="16" text-anchor="middle">6. 결과 처리 및 반환 (_show_result)</text>
  
  <!-- 연결 화살표 -->
  <line x1="350" y1="130" x2="350" y2="150" stroke="#333" stroke-width="2" marker-end="url(#arrow)"/>
  <line x1="350" y1="210" x2="350" y2="230" stroke="#333" stroke-width="2" marker-end="url(#arrow)"/>
  <line x1="350" y1="290" x2="350" y2="310" stroke="#333" stroke-width="2" marker-end="url(#arrow)"/>
  <line x1="350" y1="370" x2="350" y2="390" stroke="#333" stroke-width="2" marker-end="url(#arrow)"/>
  <line x1="350" y1="450" x2="350" y2="470" stroke="#333" stroke-width="2" marker-end="url(#arrow)"/>
  
  <!-- 화살표 마커 정의 -->
  <defs>
    <marker id="arrow" markerWidth="10" markerHeight="10" refX="9" refY="3" orient="auto" markerUnits="strokeWidth">
      <path d="M0,0 L0,6 L9,3 z" fill="#333"/>
    </marker>
  </defs>
</svg>